<svg width="162" height="237" viewBox="0 0 162 237" fill="none" xmlns="http://www.w3.org/2000/svg">
<path d="M-18.7863 29.5717C-18.7863 29.9188 -18.5049 30.2003 -18.1577 30.2003L129.115 30.2003C130.255 30.2003 131.18 31.125 131.18 32.2657L131.18 282C131.18 282.347 131.461 282.629 131.809 282.629L158.749 282.629C159.096 282.629 159.377 282.347 159.377 282L159.377 32.2657C159.377 15.552 145.828 2.003 129.115 2.003L-18.1577 2.00299C-18.5049 2.00299 -18.7863 2.28442 -18.7863 2.63159L-18.7863 29.5717Z" stroke="#1871F6" stroke-width="1.2572" stroke-linejoin="round"/>
<path d="M129.563 196.51L129.563 197.139L130.192 197.139L160.365 197.139L160.993 197.139L160.993 196.51L160.993 189.506L160.993 188.877L160.365 188.877L130.192 188.877L129.563 188.877L129.563 189.506L129.563 196.51Z" fill="#3083FF" stroke="#1871F6" stroke-width="1.2572"/>
<path d="M129.563 51.394L129.563 52.0226L130.192 52.0226L160.365 52.0226L160.993 52.0226L160.993 51.394L160.993 44.3896L160.993 43.761L160.365 43.761L130.192 43.761L129.563 43.761L129.563 44.3896L129.563 51.394Z" fill="#3083FF" stroke="#1871F6" stroke-width="1.2572"/>
</svg>
