<svg width="159" height="97" viewBox="0 0 159 97" fill="none" xmlns="http://www.w3.org/2000/svg">
<path d="M35.1989 141.785C35.1989 142.337 34.7512 142.785 34.1989 142.785H4.04492C3.49264 142.785 3.04492 142.337 3.04492 141.785L3.04492 37.4519C3.04492 18.5807 18.3431 3.2825 37.2143 3.2825H191C191.552 3.2825 192 3.73021 192 4.2825V34.4365C192 34.9888 191.552 35.4365 191 35.4365H37.2143C36.1012 35.4365 35.1989 36.3388 35.1989 37.4519V141.785Z" stroke="#1871F6" stroke-width="2" stroke-linejoin="round"/>
<path d="M157.943 1L158.943 1L158.943 2L158.943 35.7725L158.943 36.7725L157.943 36.7725L150.103 36.7725L149.103 36.7725L149.103 35.7725L149.103 2L149.103 1L150.103 1L157.943 1Z" fill="#3083FF" stroke="#1871F6" stroke-width="2"/>
<path d="M68.9434 1L69.9434 1L69.9434 2L69.9434 35.7725L69.9434 36.7725L68.9434 36.7725L61.1033 36.7725L60.1033 36.7725L60.1033 35.7725L60.1033 2L60.1033 1L61.1033 1L68.9434 1Z" fill="#3083FF" stroke="#1871F6" stroke-width="2"/>
<path d="M1.10352 86L1.10352 85L2.10352 85L35.876 85L36.876 85L36.876 86L36.876 93.84L36.876 94.84L35.876 94.84L2.10352 94.84L1.10352 94.84L1.10352 93.84L1.10352 86Z" fill="#3083FF" stroke="#1871F6" stroke-width="2"/>
</svg>
