<svg width="342" height="112" viewBox="0 0 342 112" fill="none" xmlns="http://www.w3.org/2000/svg">
<path d="M305.443 -1C304.891 -1 304.443 -0.552285 304.443 0V71.7162C304.443 72.9643 303.431 73.976 302.183 73.976H-0.00292969C-0.555214 73.976 -1.00293 74.4237 -1.00293 74.976L-1.00293 107.574C-1.00293 108.127 -0.555214 108.574 -0.00292969 108.574H302.183C322.539 108.574 339.041 92.0724 339.041 71.7162V0C339.041 -0.552285 338.593 -1 338.041 -1L305.443 -1Z" stroke="#1871F6" stroke-width="2" stroke-linejoin="round"/>
<path d="M302.488 18.2402L302.488 19.2402L303.488 19.2402L339.998 19.2402L340.998 19.2402L340.998 18.2402L340.998 9.76469L340.998 8.76469L339.998 8.76469L303.488 8.76468L302.488 8.76468L302.488 9.76468L302.488 18.2402Z" fill="#3083FF" stroke="#1871F6" stroke-width="2"/>
<path d="M267.628 72.02L266.628 72.02L266.628 73.02L266.628 109.53L266.628 110.53L267.628 110.53L276.104 110.53L277.104 110.53L277.104 109.53L277.104 73.02L277.104 72.02L276.104 72.02L267.628 72.02Z" fill="#3083FF" stroke="#1871F6" stroke-width="2"/>
<path d="M-0.477539 72.02L-1.47754 72.02L-1.47754 73.02L-1.47754 109.53L-1.47754 110.53L-0.477542 110.53L7.99801 110.53L8.99801 110.53L8.99801 109.53L8.99801 73.02L8.99801 72.02L7.99801 72.02L-0.477539 72.02Z" fill="#3083FF" stroke="#1871F6" stroke-width="2"/>
</svg>
