<svg id="visual" viewBox="0 0 900 600" width="900" height="600" xmlns="http://www.w3.org/2000/svg" xmlns:xlink="http://www.w3.org/1999/xlink" version="1.1"><path d="M0 479L21.5 471.2C43 463.3 86 447.7 128.8 436.2C171.7 424.7 214.3 417.3 257.2 426C300 434.7 343 459.3 385.8 468.8C428.7 478.3 471.3 472.7 514.2 467.8C557 463 600 459 642.8 448C685.7 437 728.3 419 771.2 419.2C814 419.3 857 437.7 878.5 446.8L900 456L900 601L878.5 601C857 601 814 601 771.2 601C728.3 601 685.7 601 642.8 601C600 601 557 601 514.2 601C471.3 601 428.7 601 385.8 601C343 601 300 601 257.2 601C214.3 601 171.7 601 128.8 601C86 601 43 601 21.5 601L0 601Z" fill="#1d65d1"></path><path d="M0 481L21.5 475.7C43 470.3 86 459.7 128.8 456.7C171.7 453.7 214.3 458.3 257.2 472.8C300 487.3 343 511.7 385.8 515C428.7 518.3 471.3 500.7 514.2 495.3C557 490 600 497 642.8 500C685.7 503 728.3 502 771.2 499.8C814 497.7 857 494.3 878.5 492.7L900 491L900 601L878.5 601C857 601 814 601 771.2 601C728.3 601 685.7 601 642.8 601C600 601 557 601 514.2 601C471.3 601 428.7 601 385.8 601C343 601 300 601 257.2 601C214.3 601 171.7 601 128.8 601C86 601 43 601 21.5 601L0 601Z" fill="#184fa1"></path></svg>